<svg aria-hidden="true" style="position: absolute; width: 0; height: 0; overflow: hidden;" version="1.1" xmlns="http://www.w3.org/2000/svg" xmlns:xlink="http://www.w3.org/1999/xlink">
<defs>
<symbol id="shuffle" viewBox="0 0 32 32">
<title>shuffle</title>
<path d="M23.812 18.906l3.494 3.496h-6.296l-13.012-13.861h-5.345v1.066h4.884l13.012 13.861h6.758l-3.485 3.486 0.754 0.754 4.772-4.774-4.781-4.782z"></path>
<path d="M7.537 22.402h-4.884v1.066h5.345l5.163-5.5-0.778-0.73z"></path>
<path d="M21.011 9.607h6.295l-3.485 3.486 0.754 0.754 4.772-4.774-4.781-4.782-0.754 0.754 3.494 3.496h-6.758l-5.185 5.545 0.779 0.728z"></path>
</symbol>
<symbol id="settings" viewBox="0 0 30 32">
<title>settings</title>
<path d="M25.6 18.453l4.267-0.427v-4l-4.267-0.427c-0.267-1.28-0.8-2.453-1.44-3.467l2.4-3.2-2.453-2.453-3.2 2.4c-1.013-0.64-2.187-1.173-3.413-1.44l-0.48-4.267h-4l-0.48 4.267c-1.227 0.267-2.347 0.747-3.36 1.387l-3.307-2.347-2.453 2.453 2.347 3.307c-0.64 1.013-1.12 2.133-1.387 3.36l-4.267 0.48v4l4.267 0.48c0.267 1.227 0.8 2.4 1.44 3.467l-2.4 3.2 2.453 2.453 3.2-2.4c1.013 0.64 2.187 1.173 3.413 1.44l0.533 4.267h4l0.533-4.267c1.227-0.267 2.347-0.747 3.36-1.387l3.253 2.347 2.453-2.453-2.4-3.36c0.64-1.067 1.12-2.187 1.387-3.413zM28.8 14.933v2.080l-3.2 0.32c0.053-0.427 0.107-0.907 0.107-1.387s-0.053-0.907-0.107-1.387l3.2 0.373zM23.947 5.76l1.173 1.173-1.76 2.4c-0.533-0.693-1.12-1.28-1.813-1.813l2.4-1.76zM13.867 2.133h2.133l0.373 3.2c-0.48-0.053-0.96-0.107-1.387-0.107-0.48 0-0.96 0.053-1.387 0.107l0.267-3.2zM4.693 6.987l1.227-1.227 2.453 1.707c-0.373 0.267-0.693 0.587-1.013 0.907s-0.64 0.64-0.907 1.013l-1.76-2.4zM1.067 17.067v-2.133l3.2-0.373c-0.053 0.48-0.107 0.96-0.107 1.44s0.053 0.96 0.107 1.387l-3.2-0.32zM5.92 26.187l-1.173-1.12 1.76-2.4c0.533 0.64 1.12 1.28 1.76 1.76l-2.347 1.76zM16 29.867h-2.133l-0.373-3.2c0.48 0.053 0.96 0.107 1.44 0.107v0 0c0.48 0 0.96-0.053 1.44-0.107l-0.373 3.2zM14.933 25.653c-5.333 0-9.653-4.32-9.653-9.653 0-2.56 1.013-5.013 2.827-6.827s4.267-2.827 6.827-2.827v0c5.333 0 9.653 4.32 9.653 9.653 0 2.56-1.013 5.013-2.827 6.827s-4.213 2.827-6.827 2.827zM25.173 25.013l-1.173 1.173-2.453-1.76c0.373-0.267 0.693-0.587 1.013-0.907s0.587-0.64 0.907-1.013l1.707 2.507z"></path>
</symbol>
<symbol id="safe" viewBox="0 0 26 32">
<title>safe</title>
<path d="M13.113 11.279c-2.429 0-4.429 1.836-4.69 4.196h-1.080v1.049h1.080c0.261 2.36 2.261 4.196 4.69 4.196 2.607 0 4.721-2.113 4.721-4.721s-2.113-4.721-4.721-4.721zM13.113 19.672c-1.846 0-3.373-1.371-3.63-3.147h3.63v-1.049h-3.63c0.256-1.776 1.784-3.147 3.63-3.147 2.024 0 3.672 1.647 3.672 3.672s-1.647 3.672-3.672 3.672z"></path>
<path d="M3.147 20.786v-3.147h-1.049v4.196h1.049z"></path>
<path d="M3.147 13.377v-3.147h-1.049v4.196h1.049z"></path>
<path d="M4.196 7.083v17.834h17.833v-17.834h-17.833zM20.98 23.868h-15.735v-15.735h15.735v15.735z"></path>
<path d="M0 3.936v24.128h26.226v-24.128h-26.226zM25.177 27.015h-24.128v-22.029h24.128v22.029z"></path>
</symbol>
<symbol id="next" viewBox="0 0 32 32">
<title>next</title>
<path d="M1.073 7.47v17.060l14.928-8.531-14.928-8.529zM2.139 9.307l11.712 6.692-11.712 6.693v-13.385z"></path>
<path d="M16 7.47v17.060l14.928-8.531-14.928-8.529zM17.066 9.307l11.712 6.692-11.712 6.693v-13.385z"></path>
</symbol>
<symbol id="mail" viewBox="0 0 32 32">
<title>mail</title>
<path d="M28.244 7.47h-25.572v17.060h26.656v-17.060h-1.084zM27.177 8.536l-10.298 10.298c-0.47 0.47-1.289 0.47-1.759 0l-10.3-10.298h22.356zM3.738 8.961l6.923 6.922-6.923 6.923v-13.846zM4.589 23.464l6.827-6.826 2.951 2.95c0.436 0.436 1.016 0.677 1.633 0.677s1.197-0.241 1.633-0.677l2.951-2.951 6.826 6.826h-22.822zM28.262 22.807l-6.923-6.924 6.923-6.924v13.848z"></path>
</symbol>
<symbol id="like" viewBox="0 0 32 32">
<title>like</title>
<path d="M21.886 5.115c3.521 0 6.376 2.855 6.376 6.376 0 1.809-0.754 3.439-1.964 4.6l-10.297 10.349-10.484-10.536c-1.1-1.146-1.778-2.699-1.778-4.413 0-3.522 2.855-6.376 6.376-6.376 2.652 0 4.925 1.62 5.886 3.924 0.961-2.304 3.234-3.924 5.886-3.924zM21.886 4.049c-2.345 0-4.499 1.089-5.886 2.884-1.386-1.795-3.54-2.884-5.886-2.884-4.104 0-7.442 3.339-7.442 7.442 0 1.928 0.737 3.758 2.075 5.152l11.253 11.309 11.053-11.108c1.46-1.402 2.275-3.308 2.275-5.352 0-4.104-3.339-7.442-7.442-7.442v0z"></path>
</symbol>
<symbol id="global" viewBox="0 0 32 32">
<title>global</title>
<path d="M16 2.672c-0.004 0-0.007 0-0.011 0-0.002 0-0.003 0-0.005 0-0.005 0-0.010 0.001-0.016 0.001-7.347 0.017-13.296 5.977-13.296 13.327 0 7.348 5.949 13.309 13.296 13.327 0.005 0 0.010 0.001 0.016 0.001 0.002 0 0.004 0 0.005 0 0.004 0 0.008 0 0.011 0 7.36 0 13.328-5.968 13.328-13.328s-5.968-13.328-13.328-13.328zM16.533 10.648c1.413-0.039 2.788-0.225 4.112-0.548 0.399 1.571 0.647 3.382 0.686 5.367h-4.798v-4.819zM16.533 9.582v-5.759c1.437 0.398 2.893 2.314 3.821 5.252-1.231 0.297-2.509 0.47-3.821 0.507zM15.467 3.81v5.772c-1.323-0.037-2.611-0.213-3.852-0.515 0.936-2.956 2.405-4.879 3.852-5.256zM15.467 10.647v4.82h-4.831c0.039-1.988 0.287-3.801 0.687-5.373 1.334 0.326 2.72 0.515 4.144 0.553zM9.563 15.467h-5.811c0.118-2.741 1.139-5.252 2.773-7.241 1.187 0.654 2.446 1.189 3.766 1.589-0.431 1.7-0.689 3.617-0.728 5.652zM9.563 16.533c0.039 2.034 0.297 3.951 0.728 5.651-1.319 0.401-2.579 0.936-3.766 1.59-1.635-1.989-2.656-4.5-2.773-7.241h5.811zM10.636 16.533h4.831v4.814c-1.424 0.038-2.81 0.228-4.145 0.555-0.399-1.571-0.647-3.383-0.686-5.369zM15.467 22.412v5.778c-1.448-0.378-2.919-2.303-3.854-5.263 1.241-0.302 2.53-0.478 3.854-0.515zM16.533 28.178v-5.765c1.313 0.038 2.591 0.211 3.822 0.508-0.928 2.941-2.384 4.86-3.822 5.257zM16.533 21.347v-4.814h4.798c-0.039 1.983-0.286 3.791-0.684 5.361-1.325-0.323-2.7-0.51-4.113-0.548zM22.404 16.533h5.845c-0.118 2.741-1.138 5.251-2.773 7.24-1.197-0.658-2.467-1.197-3.797-1.599 0.43-1.698 0.687-3.611 0.726-5.64zM22.404 15.467c-0.039-2.033-0.297-3.946-0.727-5.646 1.33-0.402 2.599-0.94 3.795-1.598 1.636 1.989 2.658 4.501 2.776 7.244h-5.845zM24.738 7.409c-1.061 0.564-2.18 1.031-3.35 1.385-0.623-2.005-1.498-3.642-2.533-4.717 2.27 0.545 4.297 1.719 5.883 3.332zM13.103 4.087c-1.029 1.073-1.9 2.702-2.521 4.697-1.158-0.353-2.268-0.815-3.319-1.375 1.575-1.602 3.587-2.774 5.84-3.322zM7.259 24.587c1.052-0.561 2.163-1.024 3.322-1.377 0.621 1.997 1.492 3.629 2.522 4.702-2.255-0.549-4.268-1.721-5.844-3.326zM18.855 27.922c1.036-1.075 1.911-2.712 2.535-4.721 1.17 0.355 2.29 0.82 3.351 1.387-1.586 1.614-3.614 2.791-5.886 3.334z"></path>
</symbol>
<symbol id="compass" viewBox="0 0 32 32">
<title>compass</title>
<path d="M17.992 5.493c0.414-0.47 0.674-1.080 0.674-1.755 0-1.472-1.193-2.665-2.666-2.665s-2.666 1.193-2.666 2.665c0 0.675 0.259 1.285 0.674 1.755-6.12 0.957-10.803 6.251-10.803 12.64 0 7.067 5.729 12.795 12.795 12.795s12.795-5.728 12.795-12.795c0-6.389-4.683-11.683-10.803-12.64zM16 2.139c0.882 0 1.599 0.717 1.599 1.599s-0.717 1.599-1.599 1.599-1.599-0.717-1.599-1.599 0.717-1.599 1.599-1.599zM16 29.861c-6.467 0-11.729-5.261-11.729-11.729s5.261-11.729 11.729-11.729 11.729 5.261 11.729 11.729-5.261 11.729-11.729 11.729z"></path>
<path d="M9.605 24.538l8.675-4.109 4.109-8.676-8.704 4.081-4.081 8.703zM14.247 17.15l2.721 2.721-5.138 2.433 2.417-5.155zM17.722 19.118l-2.721-2.721 5.155-2.417-2.434 5.139z"></path>
</symbol>
<symbol id="clock" viewBox="0 0 32 32">
<title>clock</title>
<path d="M16 3.205c-7.066 0-12.795 5.729-12.795 12.795s5.729 12.795 12.795 12.795 12.795-5.729 12.795-12.795c0-7.066-5.729-12.795-12.795-12.795zM16 27.729c-6.467 0-11.729-5.261-11.729-11.729s5.261-11.729 11.729-11.729 11.729 5.261 11.729 11.729c0 6.467-5.261 11.729-11.729 11.729z"></path>
<path d="M16 17.066h-6.398v1.066h7.464v-10.619h-1.066z"></path>
</symbol>
<symbol id="cart" viewBox="0 0 32 32">
<title>cart</title>
<path d="M30.622 9.602h-22.407l-1.809-7.464h-5.027v1.066h4.188l5.198 21.443c-1.108 0.323-1.923 1.334-1.923 2.547 0 1.472 1.193 2.666 2.666 2.666s2.666-1.194 2.666-2.666c0-0.603-0.208-1.153-0.545-1.599h7.487c-0.337 0.446-0.545 0.997-0.545 1.599 0 1.472 1.193 2.666 2.665 2.666s2.666-1.194 2.666-2.666c0-1.473-1.193-2.665-2.666-2.666v0h-11.403l-0.517-2.133h14.968l4.337-12.795zM13.107 27.196c0 0.882-0.717 1.599-1.599 1.599s-1.599-0.717-1.599-1.599c0-0.882 0.717-1.599 1.599-1.599s1.599 0.718 1.599 1.599zM24.836 27.196c0 0.882-0.718 1.599-1.6 1.599s-1.599-0.717-1.599-1.599c0-0.882 0.717-1.599 1.599-1.599s1.6 0.718 1.6 1.599zM11.058 21.331l-2.585-10.662h20.662l-3.615 10.662h-14.462z"></path>
</symbol>
<symbol id="call" viewBox="0 0 32 32">
<title>call</title>
<path d="M23.407 30.394c-2.431 0-8.341-3.109-13.303-9.783-4.641-6.242-6.898-10.751-6.898-13.785 0-2.389 1.65-3.529 2.536-4.142l0.219-0.153c0.979-0.7 2.502-0.927 3.086-0.927 1.024 0 1.455 0.599 1.716 1.121 0.222 0.442 2.061 4.39 2.247 4.881 0.286 0.755 0.192 1.855-0.692 2.488l-0.155 0.108c-0.439 0.304-1.255 0.869-1.368 1.557-0.055 0.334 0.057 0.684 0.342 1.068 1.423 1.918 5.968 7.55 6.787 8.314 0.642 0.6 1.455 0.685 2.009 0.218 0.573-0.483 0.828-0.768 0.83-0.772l0.059-0.057c0.048-0.041 0.496-0.396 1.228-0.396 0.528 0 1.065 0.182 1.596 0.541 1.378 0.931 4.487 3.011 4.487 3.011l0.050 0.038c0.398 0.341 0.973 1.323 0.302 2.601-0.695 1.327-2.85 4.066-5.079 4.066zM9.046 2.672c-0.505 0-1.746 0.213-2.466 0.728l-0.232 0.162c-0.827 0.572-2.076 1.435-2.076 3.265 0 2.797 2.188 7.098 6.687 13.149 4.914 6.609 10.532 9.353 12.447 9.353 1.629 0 3.497-2.276 4.135-3.494 0.392-0.748 0.071-1.17-0.040-1.284-0.36-0.241-3.164-2.117-4.453-2.988-0.351-0.238-0.688-0.358-0.999-0.358-0.283 0-0.469 0.1-0.532 0.14-0.104 0.111-0.39 0.405-0.899 0.833-0.951 0.801-2.398 0.704-3.424-0.254-0.923-0.862-5.585-6.666-6.916-8.459-0.46-0.62-0.641-1.252-0.538-1.877 0.187-1.133 1.245-1.866 1.813-2.26l0.142-0.099c0.508-0.363 0.4-1.020 0.316-1.242-0.157-0.414-1.973-4.322-2.203-4.781-0.188-0.376-0.336-0.533-0.764-0.533z"></path>
</symbol>
</defs>
</svg>
